<svg width="16" height="16" viewBox="0 0 16 16" fill="none" xmlns="http://www.w3.org/2000/svg">
<path d="M13.0313 11.9688C13.1012 12.0384 13.1567 12.1212 13.1945 12.2124C13.2324 12.3035 13.2519 12.4013 13.2519 12.5C13.2519 12.5987 13.2324 12.6965 13.1945 12.7876C13.1567 12.8788 13.1012 12.9616 13.0313 13.0312C12.8897 13.1709 12.6989 13.2493 12.5 13.2493C12.3011 13.2493 12.1103 13.1709 11.9688 13.0312L8.00001 9.0625L4.03126 13.0312C3.88973 13.1709 3.69887 13.2493 3.50001 13.2493C3.30115 13.2493 3.11029 13.1709 2.96876 13.0312C2.89884 12.9616 2.84336 12.8788 2.80551 12.7876C2.76765 12.6965 2.74817 12.5987 2.74817 12.5C2.74817 12.4013 2.76765 12.3035 2.80551 12.2124C2.84336 12.1212 2.89884 12.0384 2.96876 11.9688L6.93751 8L2.96876 4.03125C2.82786 3.89035 2.74871 3.69926 2.74871 3.5C2.74871 3.40134 2.76814 3.30364 2.8059 3.21249C2.84366 3.12134 2.899 3.03851 2.96876 2.96875C3.03853 2.89899 3.12135 2.84365 3.2125 2.80589C3.30365 2.76813 3.40135 2.7487 3.50001 2.7487C3.69927 2.7487 3.89036 2.82785 4.03126 2.96875L8.00001 6.9375L11.9688 2.96875C12.1097 2.82785 12.3008 2.7487 12.5 2.7487C12.6993 2.7487 12.8904 2.82785 13.0313 2.96875C13.1722 3.10965 13.2513 3.30074 13.2513 3.5C13.2513 3.69926 13.1722 3.89035 13.0313 4.03125L9.06251 8L13.0313 11.9688Z" fill="black"/>
</svg>
